<?xml version="1.0" encoding="UTF-8"?>
<!DOCTYPE svg PUBLIC "-//W3C//DTD SVG 1.1//EN" "http://www.w3.org/Graphics/SVG/1.1/DTD/svg11.dtd">
<!-- Creator: CorelDRAW (Evaluation Version) -->
<svg xmlns="http://www.w3.org/2000/svg" xml:space="preserve" width="0.2in" height="0.2in" version="1.1" style="shape-rendering:geometricPrecision; text-rendering:geometricPrecision; image-rendering:optimizeQuality; fill-rule:evenodd; clip-rule:evenodd"
viewBox="0 0 200 200"
 xmlns:xlink="http://www.w3.org/1999/xlink"
 xmlns:xodm="http://www.corel.com/coreldraw/odm/2003">
 <defs>
  <style type="text/css">
   <![CDATA[
    .fil0 {fill:none}
    .fil1 {fill:#00234A}
    .fil3 {fill:#002366}
    .fil7 {fill:#002C5E}
    .fil6 {fill:#00AFEF}
    .fil5 {fill:#013372}
    .fil2 {fill:#1397D7}
    .fil4 {fill:#1CA9C9}
   ]]>
  </style>
 </defs>
 <g id="Layer_x0020_1">
  <metadata id="CorelCorpID_0Corel-Layer"/>
  <g id="_594972776">
   <path class="fil0" d="M4.27 123.12c0.78,3.9 10.29,18.86 13.09,23.22 4.67,7.17 10.13,14.96 15.43,21.51 2.18,2.65 9.2,1.87 15.74,2.49m31.8 4.37l0.15 0c4.21,0.93 11.69,2.96 15.9,3.27l0.16 -97.73c-4.37,0.47 -9.98,1.72 -16.21,3.43"/>
   <path class="fil1" d="M96.15 180.23l0.39 -100.58c-4.37,0.47 -9.98,1.72 -16.21,3.43 -27.12,7.8 -66.87,26.5 -76.06,39.44 0.78,3.89 10.29,18.86 13.09,23.22 4.67,7.17 10.13,14.96 15.43,21.51 2.18,2.65 9.2,1.87 15.74,2.49 15.28,-0.89 44.19,7.72 47.61,10.49z"/>
   <path class="fil1" d="M104.09 180.24l-0.39 -100.58c4.37,0.47 9.98,1.72 16.21,3.43 27.12,7.8 66.86,26.5 76.06,39.44 -0.78,3.89 -10.29,18.86 -13.09,23.22 -4.68,7.17 -10.13,14.96 -15.43,21.51 -2.18,2.65 -9.19,1.87 -15.74,2.49 -15.28,-0.89 -44.19,7.72 -47.61,10.49z"/>
   <g>
    <path class="fil2" d="M152.21 37.66c2.13,2.69 2.89,3.65 3.35,3.81 0.46,0.17 1.1,-0.29 2.96,0.06 4.02,1.49 3.8,4.6 3.63,5.53 0.59,1.57 3.83,3.04 5.22,4.16l10.42 8.79c-1.3,-4.86 -8.42,-14.83 -11.01,-17.84 -21.63,-24.46 -53.66,-35.88 -84.81,-29.67l-0.06 2.65c8.15,-2.33 20.79,-2.69 28.41,-1.59 15.23,2.19 32.49,12.06 41.91,24.1z"/>
    <path class="fil2" d="M151.35 41.54c-1.2,-2.36 -3.65,-4.44 -5.18,-6.03l-6.42 -6.21c-1.28,1.22 0.13,0.94 -2.04,0.58l-4.94 -2.13c-11.59,-4.92 -12.49,0.68 -15.05,4.05 -1.76,2.15 -0.63,0.15 -3.15,1.5 -1.36,5.58 3.56,1.32 6.89,6.07 0.76,0.95 -0,0.15 0.91,1.11l3.31 -1.96c-0.23,-3.9 -1.57,-6.74 1.73,-8.22l1.22 1.11c-0,0.16 0.15,0.16 0.31,0.32 0,0 0.15,0.16 0.15,0.31 0.92,0.8 0.47,-0.3 1.23,0.81 -1.26,0.44 -1.56,0.12 -3.12,-0.07l0.41 2.81 1.56 0.35c1.25,-0.13 1.11,-0.91 4.84,-0.52 -1.78,2.93 -6.13,2.37 -7.28,5.46 14.55,-2.66 19.93,0.88 24.62,0.67z"/>
    <path class="fil2" d="M169.56 80.58c-0.66,1.55 5.39,10.72 6.28,12.76 0.66,-1.86 0.17,-0.93 2.22,-2.14 2.53,-1.5 5.55,-4.25 5,-8 -0.97,-5.79 -6.91,-4.82 -11.43,-5.07 -1.65,4.17 -1.93,2.61 -2.08,2.45z"/>
    <path class="fil3" d="M17.83 105.03c-1.11,-6.72 -2.63,-8.63 -2.45,-17.2 0.41,-19.94 5.31,-23.12 9,-35.51 -5,7.85 -6.99,13.89 -9.98,22.87l-1.68 5.58c-2.23,10.09 -2.56,18.03 -2.61,28.47l0.46 0.48c2.52,-1.19 6.17,-4.08 7.27,-4.68z"/>
    <path class="fil3" d="M122.12 60.58c2.17,0.82 -0.04,1.87 2.07,5.19 0,0 0.31,-0.15 0.31,0.16 0.3,0.63 0.31,0.01 0.78,0.17l4.64 1.66c1.7,0.66 3.55,1.79 5.57,2.3 0.65,-1.08 0.67,-2.01 1.31,-3.4 1.72,-0.12 10.05,4.11 13.68,2.15 -6.27,-6.06 -31.63,-15.93 -43.64,-15.56 0.6,1.26 4.12,4.14 5.35,5.26 1.68,1.91 3.2,3.5 5.35,5.1 0.31,-0.15 0.48,-0.3 0.63,-0.3 -0.15,-0.16 -0.15,-0.16 0.17,-0.62 0.33,-0.62 0.69,-3.26 3.79,-2.1z"/>
    <path class="fil3" d="M183.07 83.2c0.55,3.75 -2.47,6.5 -5,8 -2.05,1.2 -1.56,0.28 -2.22,2.14 0.59,1.42 2.51,6.6 2.96,7.39 0.76,1.11 5.84,4.02 6.93,4.35 2.31,-13.52 2.13,-27.55 -5.48,-36.59 -0.48,0.61 -0.92,-0.8 -0.03,1.41l1.94 4.25c0.87,2.82 -1.94,3.39 -3.48,2.27 -2,-1.44 -1.22,-1.59 -5.07,-3.69l-4.32 -1.96c0,0 -0.16,0 -0.31,-0l-0.94 0.29c2.89,3.18 2.55,4.89 1.52,9.54 0.15,0.16 0.43,1.72 2.08,-2.45 4.52,0.25 10.46,-0.72 11.43,5.07z"/>
    <path class="fil3" d="M168.22 92.56c-2.12,-3 -4.42,-5.08 -6.24,-7.46l-1.25 0.29 -1.06 5.75c3.72,0.85 6.02,3.09 9.43,4.09 0.49,-0.93 0.77,0.48 0.03,-1.4 0,0 -0.91,-1.11 -0.91,-1.27z"/>
    <path class="fil3" d="M96.95 56.16c-3,1.65 -9.68,8.22 -11.76,10.67 -2.39,2.6 -9.41,9.94 -10.71,12.72 3.44,-0.71 6.74,-2.04 10.5,-2.9 3.29,-0.71 6.89,-1.57 10.33,-2.13 0.51,-2.02 4.53,-7.86 5.64,-8.77 1.27,-1.07 3.61,-1.48 5.34,-1.92 3.92,-1.17 4.22,-0.69 5.8,-1.59l-2.91 -2.4 -0.62 -0.02c0,0 -0.16,0.15 -0.32,0.46 1.85,0.82 1.24,0.19 1.67,2.06 -5.8,1.59 -10.32,1.5 -11.89,-5.39l-1.07 -0.8z"/>
    <path class="fil2" d="M10.11 109.23c0.06,-10.44 0.38,-18.39 2.61,-28.47l1.68 -5.58c2.99,-8.98 4.99,-15.02 9.98,-22.87 -4.29,3.81 -10.34,17.4 -12.35,24.22 -3.03,10.69 -3.72,21.75 -3.2,33.92 0.31,-0.15 1.1,-0.29 1.73,-0.74l-0.46 -0.48z"/>
    <path class="fil3" d="M81.61 29.02l-0.24 11.69c3.26,0.85 6.2,1.84 9.44,3.16 10.2,4.26 4.51,0.56 12.29,1.35l0.04 -1.71 -3.26 -0.38c1.26,-0.91 2.22,-1.67 4.09,-1.63 1.07,1.11 -0.31,-0.16 0.75,1.26 0.91,1.11 -0.17,0.78 1.38,1.28 1.45,-2.31 0.35,-1.71 -0.07,-4.06 -1.71,-0.19 -2.65,-0.06 -3.75,0.39 0.68,-2.48 2.11,-3.85 4.92,-3.95 1.84,1.44 1.05,1.89 3.35,3.66 1.69,1.28 2.93,1.78 1.94,3.94l2.66 -0.57 11.59 -2.57c1.15,-3.09 5.51,-2.54 7.28,-5.46 -3.73,-0.39 -3.59,0.39 -4.84,0.52l-1.56 -0.35 -0.41 -2.81c1.56,0.19 1.86,0.51 3.12,0.07 -0.76,-1.11 -0.31,-0.01 -1.23,-0.81l-0.15 -0.31c-0.15,-0.16 -0.31,-0.16 -0.31,-0.32l-1.22 -1.11c-3.3,1.49 -1.96,4.32 -1.73,8.22l-3.31 1.96c-0.92,-0.96 -0.15,-0.16 -0.91,-1.11 -3.33,-4.75 -8.25,-0.48 -6.89,-6.07 2.52,-1.35 1.39,0.65 3.15,-1.5 2.56,-3.37 3.46,-8.97 15.05,-4.05l4.94 2.13c2.17,0.35 0.76,0.64 2.04,-0.58 -4,-2.42 -7.07,-4.98 -12.31,-7.58 -4.17,-2.11 -9.12,-3.78 -14.71,-4.83 -10.56,-2.09 -21.77,-2.48 -30.73,1.08l-0.04 1.71c3.13,-0.56 9.51,0.04 12.78,0.42 -0.2,2.02 -3.07,4.93 -4.49,5.99 -1.9,1.52 -5.81,1.91 -8.16,2.64 -0.16,0.15 -0.31,0.15 -0.47,0.15l-0 0.15z"/>
    <path class="fil4" d="M171.64 78.13c-1.65,4.17 -1.93,2.61 -2.08,2.45 -0.66,1.55 5.39,10.72 6.28,12.76 0.66,-1.86 0.17,-0.93 2.22,-2.14 2.53,-1.5 5.55,-4.25 5,-8 -0.97,-5.79 -6.91,-4.82 -11.43,-5.07z"/>
    <path class="fil4" d="M158.52 41.53c4.02,1.49 3.8,4.6 3.63,5.53 0.59,1.57 3.83,3.04 5.22,4.16l10.42 8.79c-1.3,-4.86 -8.42,-14.83 -11.01,-17.84 -21.63,-24.46 -53.66,-35.88 -84.81,-29.67l-0.06 2.65c8.15,-2.33 20.79,-2.69 28.41,-1.59 15.23,2.19 32.49,12.06 41.91,24.1 2.13,2.69 2.89,3.65 3.35,3.81 0.46,0.17 1.1,-0.29 2.96,0.06z"/>
    <path class="fil4" d="M151.35 41.54c-1.2,-2.36 -3.65,-4.44 -5.18,-6.03l-6.42 -6.21c-1.28,1.22 0.13,0.94 -2.04,0.58l-4.94 -2.13c-11.59,-4.92 -12.49,0.68 -15.05,4.05 -1.76,2.15 -0.63,0.15 -3.15,1.5 -1.36,5.58 3.56,1.32 6.89,6.07 0.76,0.95 -0,0.15 0.91,1.11l3.31 -1.96c-0.23,-3.9 -1.57,-6.74 1.73,-8.22l1.22 1.11c-0,0.16 0.15,0.16 0.31,0.32 0,0 0.15,0.16 0.15,0.31 0.92,0.8 0.47,-0.3 1.23,0.81 -1.26,0.44 -1.56,0.12 -3.12,-0.07l0.41 2.81 1.56 0.35c1.25,-0.13 1.11,-0.91 4.84,-0.52 -1.78,2.93 -6.13,2.37 -7.28,5.46 14.55,-2.66 19.93,0.88 24.62,0.67z"/>
    <path class="fil4" d="M12.72 80.76l1.68 -5.58c2.99,-8.98 4.99,-15.02 9.98,-22.87 -4.29,3.81 -10.34,17.4 -12.35,24.22 -3.03,10.69 -3.72,21.75 -3.2,33.92 0.31,-0.15 1.1,-0.29 1.73,-0.74l-0.46 -0.48c0.06,-10.44 0.38,-18.39 2.61,-28.47z"/>
    <path class="fil4" d="M190.11 97.06c-1.28,1.69 -1.26,8.39 -2.54,9.46l2.31 1.3c0.4,-4.35 0.45,-6.85 0.22,-10.75z"/>
    <path class="fil4" d="M100.96 65.75c-1.11,0.91 -5.13,6.75 -5.64,8.77 5.93,-0.5 9.06,-0.9 15.11,0.31 4.66,0.87 9.77,2.39 14.13,2.94 -1.18,-3.3 -10.78,-13.94 -12.46,-15.54 -1.58,0.9 -1.88,0.43 -5.8,1.59 -1.72,0.43 -4.07,0.85 -5.34,1.92z"/>
    <path class="fil4" d="M108.57 59.83l0 0zm-10.54 -2.87c1.57,6.89 6.09,6.98 11.89,5.39 -0.43,-1.88 0.18,-1.24 -1.67,-2.06l0.32 -0.46c0,0 0.15,0 0.62,0.02 -0.45,-0.94 -2.74,-3.33 -4.13,-3.67 -0.62,-0.17 -4.22,0.85 -7.03,0.79z"/>
    <path class="fil4" d="M63.16 31.76c4.84,7.11 6.67,1.39 18.46,-2.89 0.15,0 0.31,0 0.47,-0.15 2.35,-0.73 6.26,-1.12 8.16,-2.64 1.43,-1.06 4.29,-3.96 4.49,-5.99 -3.27,-0.38 -9.65,-0.98 -12.78,-0.42l-0.16 -0c0,0 -0.15,0 -0.31,0.15 -2.98,0.72 -1.26,0.44 -3.12,0.25 -9.58,3.39 -9.98,7.43 -15.21,11.69z"/>
    <path class="fil4" d="M80.85 13.42l-0.2 2.02c-1.73,0.59 -1.89,0.9 -2.99,1.5 1.1,-0.6 2.67,-1.19 4.24,-1.78l0.06 -2.65c-7.2,1.41 -14.43,3.91 -21.51,7.35 7.09,-3.44 13.2,-4.87 20.4,-6.44z"/>
    <path class="fil4" d="M80.65 15.44l0.2 -2.02c-7.2,1.57 -13.31,3 -20.4,6.44 -10.08,5.09 -27.15,16.43 -30.98,27.89 7.02,-7.65 5.36,-10.33 19.91,-20.32 6.01,-4.09 16.69,-8.07 24.22,-10.41 1.41,-0.59 2.82,-0.88 4.06,-0.07 1.1,-0.6 1.26,-0.91 2.99,-1.5z"/>
    <path class="fil5" d="M90.81 43.87c9.89,4.1 4.66,1.03 11.2,1.32 0.16,0 0.78,0.17 0.93,0.18l0.19 -1.87 -3.26 -0.38c1.26,-0.91 2.22,-1.67 4.09,-1.63 1.07,1.11 -0.31,-0.16 0.75,1.26 0.91,1.11 -0.17,0.78 1.38,1.28 1.45,-2.31 0.35,-1.71 -0.07,-4.06 -1.71,-0.19 -2.65,-0.06 -3.75,0.39 0.68,-2.48 2.11,-3.85 4.92,-3.95 1.84,1.44 1.05,1.89 3.35,3.66 1.69,1.28 2.93,1.78 1.94,3.94l2.66 -0.57 11.59 -2.57c1.15,-3.09 5.51,-2.54 7.28,-5.46 -3.73,-0.39 -3.59,0.39 -4.84,0.52l-1.56 -0.35 -0.41 -2.81c1.56,0.19 1.86,0.51 3.12,0.07 -0.76,-1.11 -0.31,-0.01 -1.23,-0.81l-0.15 -0.31c-0.15,-0.16 -0.31,-0.16 -0.31,-0.32l-1.22 -1.11c-3.3,1.49 -1.96,4.32 -1.73,8.22l-3.31 1.96c-0.92,-0.96 -0.15,-0.16 -0.91,-1.11 -3.33,-4.75 -8.25,-0.48 -6.89,-6.07 2.52,-1.35 1.39,0.65 3.15,-1.5 2.56,-3.37 3.46,-8.97 15.05,-4.05l4.94 2.13c2.17,0.35 0.76,0.64 2.04,-0.58 -4,-2.42 -7.07,-4.98 -12.31,-7.58 -4.17,-2.11 -9.12,-3.78 -14.71,-4.83 -10.56,-2.09 -21.93,-2.48 -30.89,1.07l-0.04 1.71c3.29,-0.56 9.67,0.05 12.93,0.43 -0.2,2.02 -3.07,4.93 -4.49,5.99 -1.9,1.52 -5.81,1.91 -8.16,2.64 -0.16,0.15 -0.31,0.15 -0.47,0.15l-0.31 -0.01 -0.25 11.84c3.26,0.85 6.51,1.85 9.76,3.17z"/>
    <path class="fil5" d="M95.45 53.32c-3.74,-0.23 -9.06,0.59 -14.38,1.89 -10.34,2.59 -22.3,7.65 -29.4,11.86l-3.16 1.96c-0,0.16 0.14,0.78 -0.02,0.94 -0.37,2.8 -1.94,3.07 -1.94,3.23 0,0.16 0.15,0.31 0.15,0.47 0.67,5.16 2.7,12.37 4.37,14.43 4.24,-1.16 8.96,-3.71 13.83,-5.33 5.65,-1.91 4.25,-1.94 10.17,-9.46 1.76,-2.3 3.83,-4.44 5.75,-6.58 6.53,-6.72 13.5,-12.19 14.62,-13.42z"/>
    <path class="fil5" d="M80.5 52.54c2.66,-0.57 12.82,-1.92 14.24,-2.51 0.17,-0.62 0.34,-1.24 0.5,-1.55 0,0 -1.09,-0.02 -1.09,-0.18 -0.77,-0.33 -1.86,-0.66 -3.09,-1.15 -4.64,-1.81 -9.59,-3.63 -14.71,-4.67 -4.35,-0.87 -19.9,-2.75 -22.91,-0.32 1.06,1.42 0.46,0.17 2.31,1.14 2.62,1.46 1.49,3.3 2.54,5.04 0.76,1.11 1.39,0.96 2.14,2.07 -3.17,2.27 -4.36,-0.25 -4.97,-0.73 -1.59,1.21 -2.7,2.13 -5.03,1.92l-1.19 -2.52 1.28 -1.37c1.11,-1.07 3.16,-1.96 2.11,-4.17 -0.83,2.48 -2.72,3.37 -3.98,3.81 -0.78,0.3 -1.41,0.13 -1.59,1.68 -1.67,5.26 -1.48,11.35 -0.98,17.13 1.1,-0.29 14.65,-7.34 21.87,-9.84 4.24,-1.47 7.85,-2.8 12.55,-3.79z"/>
    <path class="fil5" d="M122.12 60.58c2.17,0.82 -0.04,1.87 2.07,5.19 0,0 0.31,-0.15 0.31,0.16 0.3,0.63 0.31,0.01 0.78,0.17l4.64 1.66c1.7,0.66 3.55,1.79 5.57,2.3 0.65,-1.08 0.67,-2.01 1.31,-3.4 1.72,-0.12 10.05,4.11 13.68,2.15 -6.27,-6.06 -31.63,-15.93 -43.64,-15.56 0.6,1.26 4.12,4.14 5.35,5.26 1.68,1.91 3.2,3.5 5.35,5.1 0.31,-0.15 0.48,-0.3 0.63,-0.3 -0.15,-0.16 -0.15,-0.16 0.17,-0.62 0.33,-0.62 0.69,-3.26 3.79,-2.1z"/>
    <path class="fil5" d="M100.96 65.75c1.27,-1.07 3.61,-1.48 5.34,-1.92 3.92,-1.17 4.22,-0.69 5.8,-1.59l-2.91 -2.4 -0.62 -0.02c0,0 -0.16,0.15 -0.32,0.46 1.85,0.82 1.24,0.19 1.67,2.06 -5.8,1.59 -10.15,0.57 -11.87,-6.48l-0.62 -0.33c-3,1.65 -10.16,8.83 -12.24,11.28 -2.39,2.6 -9.41,9.94 -10.71,12.72 3.44,-0.71 6.74,-2.04 10.5,-2.9 3.29,-0.71 6.89,-1.57 10.33,-2.13 0.51,-2.02 4.53,-7.86 5.64,-8.77z"/>
    <path class="fil5" d="M47.78 89.59l-4.81 -16.31c-5.36,3 -16.63,20.23 -18.66,27.83 0.16,-0.15 23.15,-11.37 23.47,-11.52z"/>
    <path class="fil5" d="M26.11 89.45c3.07,-5.08 7.26,-12.01 11.71,-16.13 0.64,-0.76 1.75,-1.83 2.71,-2.75l0.16 -0.15c-0.28,-1.72 0.53,-3.11 1.64,-4.02l0 -0.16c-0.11,-2.03 -0.53,-4.37 -0.17,-7.02l-0.16 0.15c-0.16,0.15 -0.17,0.31 -0.32,0.46 -0.31,-0 -0.63,0.15 -1.43,1.22l-0.32 0.3c-0.31,0.31 -0.48,0.77 -0.8,1.23l-5.94 8.14 -0.96 1.39 -1.6 2.15c-0.99,2.63 -0.39,3.58 -2.31,5.88 -0.77,-0.48 -1.39,-0.65 -1.85,-0.97 -0.91,-0.96 -0.59,-1.73 -1.2,-2.21 -0.3,-0.47 -1.39,-0.5 -5.14,-0.11 0.21,-2.65 0.4,-4.05 1.22,-6.37 0,-0.16 0,-0.16 0,-0.31l0 -0.16c0.5,-1.39 1.14,-2.47 1.32,-3.56 0.32,-0.61 0.18,-1.24 -0.28,-1.72 0,0 -0.16,-0 -0.15,-0.16 -1.52,5.74 -3.19,10.69 -3.79,17.38 -0.56,4.2 0.3,15.59 1.79,19.06 1.28,-1.69 1.8,-4.02 2.62,-5.87 0.98,-2.16 2.11,-3.85 3.24,-5.7z"/>
    <path class="fil5" d="M17.83 105.03c-1.11,-6.72 -2.63,-8.63 -2.45,-17.2 0.41,-19.94 5.31,-23.12 9,-35.51 -5,7.85 -6.99,13.89 -9.98,22.87l-1.68 5.58c-2.23,10.09 -2.56,18.03 -2.61,28.47l0.46 0.48c2.52,-1.19 6.17,-4.08 7.27,-4.68z"/>
    <path class="fil5" d="M175.85 93.34c0.59,1.42 2.51,6.6 2.96,7.39 0.76,1.11 5.84,4.02 6.93,4.35 2.31,-13.52 2.13,-27.55 -5.48,-36.59 -0.48,0.61 -0.92,-0.8 -0.03,1.41l1.94 4.25c0.87,2.82 -1.94,3.39 -3.48,2.27 -2,-1.44 -1.22,-1.59 -5.07,-3.69l-4.32 -1.96c0,0 -0.16,0 -0.31,-0l-0.94 0.29c2.89,3.18 2.55,4.89 1.52,9.54 0.15,0.16 0.43,1.72 2.08,-2.45 4.52,0.25 10.46,-0.72 11.43,5.07 0.55,3.75 -2.47,6.5 -5,8 -2.05,1.2 -1.56,0.28 -2.22,2.14z"/>
    <path class="fil5" d="M169.13 93.82c0,0 -0.91,-1.11 -0.91,-1.27 -2.12,-3 -4.42,-5.08 -6.24,-7.46l-1.25 0.29 -1.06 5.75c3.72,0.85 6.02,3.09 9.43,4.09 0.49,-0.93 0.77,0.48 0.03,-1.4z"/>
    <path class="fil5" d="M49.96 37.1c7.33,-7.8 15.9,-14.95 27.7,-20.16 -1.23,-0.8 -2.64,-0.52 -4.06,0.07 -7.53,2.33 -18.22,6.32 -24.22,10.41 -14.55,9.99 -12.89,12.67 -19.91,20.32 -1.95,3.85 -4.39,8.95 -5.57,13.29 0.47,-0.15 0.78,-0.3 1.1,-0.44 0.16,0 0.31,-0.15 0.32,-0.31 0.32,-0.46 0.33,-1.08 0.67,-2.17 0.17,-0.46 0.33,-1.08 0.66,-1.7 0.81,-1.39 1.14,-2.31 1.31,-2.78 0.33,-1.08 -0.3,-0.63 0.02,-1.09 -0.15,-0.16 0.48,-0.61 1.44,-1.69 1.8,-4.02 7.61,-6.23 10.77,-8.19 -0.55,-3.44 3.77,-8.65 9.78,-5.57z"/>
    <path class="fil5" d="M81.62 28.87c-11.78,4.28 -13.61,10 -18.46,2.89 5.23,-4.26 5.63,-8.3 15.21,-11.69 1.87,0.19 0.15,0.47 3.12,-0.25 0.16,-0.15 0.31,-0.15 0.47,-0.15l0.04 -1.71c-0.47,0.15 -0.94,0.45 -1.26,0.6 -0.31,0.15 -1.42,0.59 -2.04,0.74 -7.72,3.74 -6.28,2.36 -13.09,7.37 -2.68,1.5 -12.2,9.57 -13.52,12.66 10.61,-0.41 16.88,-1.83 27.73,1.04 0.47,0.01 1.09,0.18 1.55,0.34l0.24 -11.69 0 -0.15z"/>
    <path class="fil5" d="M183.07 83.2c0.55,3.75 -2.47,6.5 -5,8 -2.05,1.2 -1.56,0.28 -2.22,2.14 0.59,1.42 2.51,6.6 2.96,7.39 0.76,1.11 5.84,4.02 6.93,4.35 2.31,-13.52 2.13,-27.55 -5.48,-36.59 -0.48,0.61 -0.92,-0.8 -0.03,1.41l1.94 4.25c0.87,2.82 -1.94,3.39 -3.48,2.27 -2,-1.44 -1.22,-1.59 -5.07,-3.69l-4.32 -1.96c0,0 -0.16,0 -0.31,-0l-1.1 0.44c1.37,1.9 1.81,3 1.93,4.56 0.14,0.78 0.1,2.65 -0.71,4.35 0.31,0.16 0.89,2.2 2.54,-1.97 4.52,0.25 10.46,-0.72 11.43,5.07z"/>
    <path class="fil5" d="M168.22 92.56c-2.12,-3 -4.72,-5.55 -6.7,-7.78l-0.62 -0.17 -1.23 6.52c3.72,0.85 6.02,3.09 9.43,4.09 0.49,-0.93 0.77,0.48 0.03,-1.4 0,0 -0.91,-1.11 -0.91,-1.27z"/>
    <path class="fil6" d="M146.24 62.79c3.86,1.8 8.91,6.11 10.76,7.08 0.95,-0.76 2.2,-1.04 3.3,-1.33 0.24,-3.89 0.83,-17.44 -3.67,-18.47l-0.47 -0.01c-0.46,-0.17 -1.08,-0.49 -1.39,-0.65 -0.93,-0.49 -1.23,-0.96 -1.38,-1.28 -0.45,-0.63 -0.89,-2.04 -0.72,-2.82 -8.06,-2.35 -16.78,-3 -25.22,-1.46 -4.54,0.84 -16.77,4.17 -20.08,6.13 13.34,3.08 11.06,0.54 27.29,7.11 4.48,1.65 7.87,3.91 11.57,5.7z"/>
    <path class="fil6" d="M150.48 68.8c-3.63,1.95 -11.96,-2.28 -13.68,-2.15 -0.65,1.39 -0.67,2.32 -1.31,3.4 -2.02,-0.51 -3.87,-1.64 -5.57,-2.3l-4.64 -1.66c-0.46,-0.17 -0.48,0.46 -0.78,-0.17l-0.31 -0.16c-2.11,-3.32 0.09,-4.36 -2.07,-5.19 -3.09,-1.16 -3.46,1.48 -3.79,2.1 -0.32,0.46 -0.32,0.46 -0.17,0.62 -0.15,0 -0.31,0.15 -0.63,0.3 3.34,4.44 5.94,6.67 10.33,13.31 1.82,2.53 1.35,2.52 4.76,3.53l23.83 8.76c0.81,-1.54 1.18,-4.19 0.89,-5.59 -1.23,-0.81 -2.76,-2.09 -3.65,-4.6 -1.17,-3.92 1.08,-6.84 1.24,-7.15l-4.46 -3.06z"/>
    <path class="fil6" d="M160.24 49.21c1.75,5.8 3.08,9.26 2.87,19.39 2.02,0.51 3.56,1.32 4.78,2.59l1.1 -0.44 0.31 0 4.32 1.96c3.85,2.11 3.07,2.25 5.07,3.69 1.54,1.12 4.35,0.56 3.48,-2.27l-1.94 -4.25c-0.89,-2.2 -0.45,-0.79 0.03,-1.41 -1.47,-4.24 -14.14,-17.28 -20.02,-19.28z"/>
    <path class="fil6" d="M183.07 83.2c-0.97,-5.79 -6.91,-4.82 -11.43,-5.07 -1.65,4.17 -2.23,2.13 -2.54,1.97 -0.5,1.55 5.85,11.19 6.74,13.24 0.66,-1.86 0.17,-0.93 2.22,-2.14 2.53,-1.5 5.55,-4.25 5,-8z"/>
    <path class="fil6" d="M174.5 98.14c-1.45,-5.17 -6.31,-11.67 -7.8,-15.13 -0.79,0.61 -2.69,1.81 -5.18,1.76 1.98,2.22 4.58,4.77 6.7,7.78l0.91 1.27c0.74,1.89 0.46,0.48 -0.03,1.4 1.69,1.13 3.38,2.41 5.4,2.92z"/>
    <path class="fil6" d="M167.37 51.22l10.42 8.79c-1.3,-4.86 -8.42,-14.83 -11.01,-17.84 -21.63,-24.46 -53.66,-35.88 -84.81,-29.67l-0.06 2.65c8.15,-2.33 20.79,-2.69 28.41,-1.59 15.23,2.19 32.49,12.06 41.91,24.1 2.13,2.69 2.89,3.65 3.35,3.81 0.46,0.17 1.1,-0.29 2.96,0.06 4.02,1.49 3.8,4.6 3.63,5.53 0.59,1.57 3.83,3.04 5.22,4.16z"/>
    <path class="fil6" d="M110.54 40.07c-2.3,-1.76 -1.52,-2.22 -3.35,-3.66 -2.81,0.1 -4.24,1.47 -4.92,3.95 1.1,-0.44 2.04,-0.58 3.75,-0.39 0.42,2.35 1.52,1.75 0.07,4.06 -1.55,-0.5 -0.46,-0.17 -1.38,-1.28 -1.06,-1.43 0.31,-0.15 -0.75,-1.26 -1.87,-0.04 -2.82,0.72 -4.09,1.63l3.26 0.38 -0.19 1.87c0.62,0.17 1.7,0.5 2.78,1.46 -0,0.15 0.31,0.16 0.46,0.17 4.57,-2.24 7.54,-2.81 8.96,-3.56l-2.66 0.57c0.98,-2.16 -0.26,-2.66 -1.94,-3.94z"/>
    <path class="fil6" d="M114.57 33.3c-1.36,5.58 3.56,1.32 6.89,6.07 0.76,0.95 -0,0.15 0.91,1.11l3.31 -1.96c-0.23,-3.9 -1.57,-6.74 1.73,-8.22l1.22 1.11c-0,0.16 0.15,0.16 0.31,0.32 0,0 0.15,0.16 0.15,0.31 0.92,0.8 0.47,-0.3 1.23,0.81 -1.26,0.44 -1.56,0.12 -3.12,-0.07l0.41 2.81 1.56 0.35c1.25,-0.13 1.11,-0.91 4.84,-0.52 -1.78,2.93 -6.13,2.37 -7.28,5.46 14.55,-2.66 22.1,1.86 26.93,2.12 -1.66,-2.53 -5.96,-5.89 -7.48,-7.48l-6.42 -6.21c-1.28,1.22 0.13,0.94 -2.04,0.58l-4.94 -2.13c-11.59,-4.92 -12.49,0.68 -15.05,4.05 -1.76,2.15 -0.63,0.15 -3.15,1.5z"/>
    <path class="fil6" d="M82.09 28.72c2.35,-0.73 6.26,-1.12 8.16,-2.64 1.43,-1.06 4.29,-3.96 4.49,-5.99 -3.27,-0.38 -9.65,-0.98 -12.78,-0.42l-0.16 -0c0,0 -0.15,0 -0.31,0.15 -2.98,0.72 -1.26,0.44 -3.12,0.25 -9.58,3.39 -9.98,7.43 -15.21,11.69 4.84,7.11 6.67,1.39 18.46,-2.89 0.15,0 0.31,0 0.47,-0.15z"/>
    <path class="fil6" d="M73.6 17.01c1.41,-0.59 2.82,-0.88 4.06,-0.07 1.1,-0.6 1.26,-0.91 2.99,-1.5l0.2 -2.02c-7.2,1.57 -13.31,3 -20.4,6.44 -10.08,5.09 -27.15,16.43 -30.98,27.89 7.02,-7.65 5.36,-10.33 19.91,-20.32 6.01,-4.09 16.69,-8.07 24.22,-10.41z"/>
    <path class="fil6" d="M43.52 46.94c-1.08,-0.49 -0.93,-0.48 -1.7,-0.97l-0.76 -0.95 -9.79 6.04c-3.33,2.89 -3.01,2.28 -2.67,0.72 -0.32,0.46 -0.79,0.45 -0.8,0.61 -0.32,0.46 0.31,0 -0.02,1.09 -0.17,0.46 -0.5,1.39 -1.31,2.93 -0.32,0.62 -0.49,1.08 -0.65,1.39l0 0 -0 0.16c-0.33,0.93 -0.19,1.71 -0.51,2.17 -0.16,0.15 -0.31,0.15 -0.48,0.3 -0.31,0.15 -0.47,0.15 -0.94,0.3 0,0 -1.15,2.63 -1.64,4.02 0,0 0,0 0.16,0 0.46,0.48 0.44,1.1 0.27,1.88 -0.33,0.93 -0.82,2.01 -1.32,3.4 0,0 -0,0.16 -0.16,0.31 0,0 0,0 -0,0.16l0 0c-0.67,2.32 -0.85,3.72 -1.22,6.37 3.9,-0.39 4.84,-0.37 5.29,0.27 0.46,0.32 0.29,1.09 1.2,2.05 0.31,0.32 1.08,0.49 1.85,0.97 2.07,-2.3 1.31,-3.25 2.3,-5.72 0,-0.16 0.16,-0.15 0.16,-0.31l2.41 -3.38 6.58 -9.06c0,0 0,-0.16 0.16,-0.15 0,-0.16 0.16,-0.31 0.32,-0.46 0.8,-0.92 1.12,-1.22 1.43,-1.22 0.16,-0.15 0.16,-0.31 0.32,-0.46l0.15 0c0.17,-0.78 -0.12,-1.87 0.28,-5.92l1.07 -6.53z"/>
    <path class="fil6" d="M12.72 80.76l1.68 -5.58c2.99,-8.98 4.99,-15.02 9.98,-22.87 -4.29,3.81 -10.34,17.4 -12.35,24.22 -3.03,10.69 -3.72,21.75 -3.2,33.92 0.31,-0.15 1.1,-0.29 1.73,-0.74l-0.46 -0.48c0.06,-10.44 0.38,-18.39 2.61,-28.47z"/>
    <path class="fil6" d="M100.96 65.75c-1.11,0.91 -5.13,6.75 -5.64,8.77 5.93,-0.5 9.06,-0.9 15.11,0.31 4.66,0.87 9.77,2.39 14.13,2.94 -1.18,-3.3 -10.78,-13.94 -12.46,-15.54 -1.58,0.9 -1.88,0.43 -5.8,1.59 -1.72,0.43 -4.07,0.85 -5.34,1.92z"/>
    <path class="fil6" d="M108.57 59.83l0 0 0 0zm-10.52 -3.96c1.72,7.05 6.07,8.07 11.87,6.48 -0.43,-1.88 0.18,-1.24 -1.67,-2.06l0.32 -0.46c0,0 0.15,0 0.62,0.02 -0.45,-0.94 -3.2,-3.81 -4.59,-4.15 -1.27,0.91 -3.77,1.48 -6.55,0.18z"/>
    <path class="fil6" d="M190.11 97.06c-1.28,1.69 -1.26,8.39 -2.54,9.46l2.31 1.3c0.4,-4.35 0.45,-6.85 0.22,-10.75z"/>
    <path class="fil6" d="M55.46 49.69c0.61,0.48 1.81,3 4.97,0.73 -0.76,-1.11 -1.38,-0.96 -2.14,-2.07 -1.06,-1.74 0.07,-3.58 -2.54,-5.04 -1.85,-0.97 -1.26,0.28 -2.31,-1.14 -0.31,-0.01 -0.62,-0.17 -0.63,-0.02 0,0 0,0.16 -0.01,0.47 -0,0.16 -0.01,0.47 -0.17,0.93 1.04,2.2 -1,3.09 -2.11,4.17l-1.28 1.37 1.19 2.52c2.33,0.2 3.44,-0.71 5.03,-1.92z"/>
    <path class="fil6" d="M80.85 13.42l-0.2 2.02c-1.73,0.59 -1.89,0.9 -2.99,1.5 1.1,-0.6 2.67,-1.19 4.24,-1.78l0.06 -2.65c-7.2,1.41 -14.43,3.91 -21.51,7.35 7.09,-3.44 13.2,-4.87 20.4,-6.44z"/>
   </g>
   <path class="fil7" d="M48.53 169.74c9.51,-0.56 24.29,2.57 34.93,5.68 6.46,1.89 11.39,3.77 12.69,4.81l0.01 -2.26 0.38 -97.71 0 -0.61c-4.37,0.47 -9.98,1.72 -16.21,3.43 -27.12,7.8 -66.87,26.5 -76.06,39.44 0.78,3.89 10.29,18.86 13.09,23.22 4.67,7.17 10.13,14.96 15.43,21.51 2.18,2.65 9.2,1.87 15.74,2.49z"/>
   <path class="fil7" d="M103.69 79.65l0.39 100.58c3.43,-2.78 32.33,-11.39 47.61,-10.49 6.55,-0.62 13.56,0.16 15.74,-2.49 5.3,-6.55 10.76,-14.34 15.43,-21.51 2.8,-4.37 12.31,-19.33 13.09,-23.22 -9.2,-12.94 -48.94,-31.64 -76.06,-39.44 -6.24,-1.71 -11.85,-2.96 -16.21,-3.43z"/>
  </g>
 </g>
</svg>
